<?xml version="1.0" standalone="no"?>
<!DOCTYPE svg PUBLIC "-//W3C//DTD SVG 20010904//EN"
 "http://www.w3.org/TR/2001/REC-SVG-20010904/DTD/svg10.dtd">
<svg version="1.0" xmlns="http://www.w3.org/2000/svg"
 width="256.000000pt" height="256.000000pt" viewBox="0 0 256.000000 256.000000"
 preserveAspectRatio="xMidYMid meet">

<g transform="translate(0.000000,256.000000) scale(0.100000,-0.100000)"
fill="#000000" stroke="none">
<path d="M965 1965 c-38 -37 -37 -39 54 -114 30 -25 33 -30 21 -50 -10 -21
-18 -23 -57 -18 -32 3 -42 2 -34 -6 6 -6 26 -11 45 -11 80 0 90 69 18 117 -24
16 -46 36 -49 43 -9 25 17 44 61 44 30 0 37 3 26 10 -26 17 -60 11 -85 -15z"/>
<path d="M763 1875 c-22 -58 -36 -105 -31 -105 5 0 15 14 21 30 11 28 15 30
60 30 45 0 50 -2 60 -30 10 -26 27 -41 27 -23 0 21 -77 203 -86 203 -6 0 -29
-47 -51 -105z m86 -12 c1 -9 -13 -13 -38 -13 l-40 0 13 33 c7 17 16 41 21 52
6 18 9 15 25 -20 10 -22 19 -46 19 -52z"/>
<path d="M1120 1875 c0 -63 4 -105 10 -105 6 0 10 18 10 40 0 38 2 40 30 40
35 0 80 38 80 67 0 10 -7 29 -16 41 -12 18 -25 22 -65 22 l-49 0 0 -105z m91
76 c20 -16 22 -23 14 -47 -9 -24 -17 -30 -48 -32 l-37 -3 0 50 c0 47 2 51 24
51 13 0 34 -9 47 -19z"/>
<path d="M1340 1875 c0 -129 18 -142 22 -16 l3 90 63 -90 c34 -49 67 -89 72
-89 6 0 10 44 10 105 0 128 -18 142 -22 18 l-3 -88 -59 88 c-33 48 -66 87 -73
87 -10 0 -13 -25 -13 -105z"/>
<path d="M1580 1875 l0 -105 58 2 57 1 -50 6 -50 6 0 40 c0 39 1 40 40 46 l40
5 -40 5 c-39 4 -40 5 -40 44 0 40 0 40 45 46 l45 6 -52 1 -53 2 0 -105z"/>
<path d="M1743 1973 l37 -4 0 -100 c0 -59 4 -99 10 -99 6 0 10 40 10 99 l0
100 33 4 c17 2 -4 4 -48 4 -44 0 -63 -2 -42 -4z"/>
<path d="M1262 1781 c2 -7 7 -12 11 -12 12 1 9 15 -3 20 -7 2 -11 -2 -8 -8z"/>
<path d="M880 1624 c-182 -48 -321 -192 -365 -376 -29 -123 -16 -235 40 -353
129 -271 480 -363 735 -193 72 48 77 54 55 78 -16 18 -18 17 -68 -21 -135
-102 -324 -117 -481 -37 -53 27 -142 112 -173 166 -87 147 -84 351 7 492 137
213 441 269 640 118 57 -43 62 -44 81 -22 12 15 9 21 -26 50 -110 96 -297 137
-445 98z"/>
<path d="M1481 1335 c-16 -14 -33 -35 -36 -45 -11 -35 -23 -21 -18 20 6 39 5
40 -26 40 l-31 0 0 -235 0 -235 30 0 30 0 0 146 c0 170 10 213 58 256 30 26
41 29 74 25 37 -5 38 -4 38 24 0 28 -2 29 -44 29 -33 0 -52 -7 -75 -25z"/>
<path d="M1785 1346 c-41 -18 -100 -85 -116 -132 -18 -56 -16 -162 5 -217 21
-57 82 -114 131 -123 53 -10 156 1 193 20 25 13 32 23 32 45 l0 28 -47 -23
c-63 -32 -147 -33 -193 -1 -42 28 -70 81 -70 129 l0 38 171 0 172 0 -6 60 c-6
72 -39 136 -86 167 -39 27 -135 31 -186 9z m164 -62 c27 -22 51 -75 51 -111 0
-10 -35 -13 -140 -13 -157 0 -156 -1 -120 71 41 79 146 106 209 53z"/>
</g>
</svg>
